<svg width="175" height="40" viewBox="0 0 175 40" fill="none" xmlns="http://www.w3.org/2000/svg">
<path d="M43.82 27V13.112H46.984L47.264 15.464C47.6933 14.6427 48.3093 13.9893 49.112 13.504C49.9333 13.0187 50.8947 12.776 51.996 12.776C53.7133 12.776 55.048 13.3173 56 14.4C56.952 15.4827 57.428 17.0693 57.428 19.16V27H53.844V19.496C53.844 18.3013 53.6013 17.3867 53.116 16.752C52.6307 16.1173 51.8747 15.8 50.848 15.8C49.84 15.8 49.0093 16.1547 48.356 16.864C47.7213 17.5733 47.404 18.5627 47.404 19.832V27H43.82ZM66.0632 27.336C64.3272 27.336 62.9832 26.7947 62.0312 25.712C61.0978 24.6293 60.6312 23.0427 60.6312 20.952V13.112H64.1872V20.616C64.1872 21.8107 64.4298 22.7253 64.9152 23.36C65.4005 23.9947 66.1658 24.312 67.2112 24.312C68.2005 24.312 69.0125 23.9573 69.6472 23.248C70.3005 22.5387 70.6272 21.5493 70.6272 20.28V13.112H74.2112V27H71.0472L70.7672 24.648C70.3378 25.4693 69.7125 26.1227 68.8912 26.608C68.0885 27.0933 67.1458 27.336 66.0632 27.336ZM76.5743 27L81.6143 20.056L76.5743 13.112H80.4103L83.9383 18.04L87.4383 13.112H91.3023L86.2343 20.056L91.3023 27H87.4383L83.9383 22.072L80.4103 27H76.5743ZM99.7736 27C98.3176 27 97.151 26.6453 96.2736 25.936C95.3963 25.2267 94.9576 23.9667 94.9576 22.156V16.108H92.5776V13.112H94.9576L95.3776 9.388H98.5416V13.112H102.294V16.108H98.5416V22.184C98.5416 22.856 98.6816 23.3227 98.9616 23.584C99.2603 23.8267 99.7643 23.948 100.474 23.948H102.21V27H99.7736ZM104.195 30.108L111.195 5.244H114.695L107.667 30.108H104.195Z" fill="#003C3C"/>
<path d="M117.156 27V6.84H120.74V15.24C121.207 14.4747 121.832 13.8773 122.616 13.448C123.419 13 124.333 12.776 125.36 12.776C127.077 12.776 128.403 13.3173 129.336 14.4C130.288 15.4827 130.764 17.0693 130.764 19.16V27H127.208V19.496C127.208 18.3013 126.965 17.3867 126.48 16.752C126.013 16.1173 125.267 15.8 124.24 15.8C123.232 15.8 122.392 16.1547 121.72 16.864C121.067 17.5733 120.74 18.5627 120.74 19.832V27H117.156ZM140.379 27C138.923 27 137.756 26.6453 136.879 25.936C136.002 25.2267 135.563 23.9667 135.563 22.156V16.108H133.183V13.112H135.563L135.983 9.388H139.147V13.112H142.899V16.108H139.147V22.184C139.147 22.856 139.287 23.3227 139.567 23.584C139.866 23.8267 140.37 23.948 141.079 23.948H142.815V27H140.379ZM152.164 27C150.708 27 149.542 26.6453 148.664 25.936C147.787 25.2267 147.348 23.9667 147.348 22.156V16.108H144.968V13.112H147.348L147.768 9.388H150.932V13.112H154.684V16.108H150.932V22.184C150.932 22.856 151.072 23.3227 151.352 23.584C151.651 23.8267 152.155 23.948 152.864 23.948H154.6V27H152.164ZM157.761 33.16V13.112H160.953L161.345 15.1C161.793 14.484 162.381 13.9427 163.109 13.476C163.856 13.0093 164.817 12.776 165.993 12.776C167.3 12.776 168.467 13.0933 169.493 13.728C170.52 14.3627 171.332 15.2307 171.929 16.332C172.527 17.4333 172.825 18.684 172.825 20.084C172.825 21.484 172.527 22.7347 171.929 23.836C171.332 24.9187 170.52 25.7773 169.493 26.412C168.467 27.028 167.3 27.336 165.993 27.336C164.948 27.336 164.033 27.14 163.249 26.748C162.465 26.356 161.831 25.8053 161.345 25.096V33.16H157.761ZM165.237 24.2C166.376 24.2 167.319 23.8173 168.065 23.052C168.812 22.2867 169.185 21.2973 169.185 20.084C169.185 18.8707 168.812 17.872 168.065 17.088C167.319 16.304 166.376 15.912 165.237 15.912C164.08 15.912 163.128 16.304 162.381 17.088C161.653 17.8533 161.289 18.8427 161.289 20.056C161.289 21.2693 161.653 22.268 162.381 23.052C163.128 23.8173 164.08 24.2 165.237 24.2Z" fill="#00DC82"/>
<mask id="mask0" mask-type="alpha" maskUnits="userSpaceOnUse" x="1" y="5" width="30" height="30">
<path d="M27.2008 33.2309C19.8319 34.9446 12.1681 34.9446 4.7992 33.2309C3.7909 32.9964 3.0036 32.2091 2.76911 31.2008C1.05541 23.8319 1.05541 16.1681 2.76911 8.7992C3.0036 7.7909 3.7909 7.0036 4.7992 6.76911C12.1681 5.05541 19.8319 5.05541 27.2008 6.76911C28.2091 7.0036 28.9964 7.7909 29.2309 8.7992C30.9446 16.1681 30.9446 23.8319 29.2309 31.2008C28.9964 32.2091 28.2091 32.9964 27.2008 33.2309Z" fill="#00DC82" stroke="black" stroke-width="0.32"/>
</mask>
<g mask="url(#mask0)">
<path fill-rule="evenodd" clip-rule="evenodd" d="M20.9369 4.60376H0.52832V32.9829L3.45339 36H15.4373L25.4888 30.1968C26.0893 29.8501 26.295 29.0822 25.9483 28.4818L20.3068 18.7104C19.9601 18.1099 20.1659 17.3421 20.7663 16.9954L24.2791 14.9674C24.8795 14.6207 25.6474 14.8264 25.9941 15.4269L32 25.8295V5.83872C31.9349 5.86294 31.871 5.89291 31.8088 5.9288L15.0798 15.5873C14.4793 15.934 14.2736 16.7018 14.6203 17.3023L20.2618 27.0736C20.6085 27.6741 20.4027 28.4419 19.8022 28.7886L16.2649 30.8309C15.6644 31.1776 14.8966 30.9719 14.5499 30.3714L5.61669 14.8986C5.27001 14.2981 5.47574 13.5303 6.07622 13.1836L20.9369 4.60376ZM28.6042 36L32 34.0394V36H28.6042Z" fill="#00DC82"/>
</g>
</svg>
