<svg width="175" height="40" viewBox="0 0 175 40" fill="none" xmlns="http://www.w3.org/2000/svg">
<path d="M43.82 30V16.112H46.984L47.264 18.464C47.6933 17.6427 48.3093 16.9893 49.112 16.504C49.9333 16.0187 50.8947 15.776 51.996 15.776C53.7133 15.776 55.048 16.3173 56 17.4C56.952 18.4827 57.428 20.0693 57.428 22.16V30H53.844V22.496C53.844 21.3013 53.6013 20.3867 53.116 19.752C52.6307 19.1173 51.8747 18.8 50.848 18.8C49.84 18.8 49.0093 19.1547 48.356 19.864C47.7213 20.5733 47.404 21.5627 47.404 22.832V30H43.82ZM66.0632 30.336C64.3272 30.336 62.9832 29.7947 62.0312 28.712C61.0978 27.6293 60.6312 26.0427 60.6312 23.952V16.112H64.1872V23.616C64.1872 24.8107 64.4298 25.7253 64.9152 26.36C65.4005 26.9947 66.1658 27.312 67.2112 27.312C68.2005 27.312 69.0125 26.9573 69.6472 26.248C70.3005 25.5387 70.6272 24.5493 70.6272 23.28V16.112H74.2112V30H71.0472L70.7672 27.648C70.3378 28.4693 69.7125 29.1227 68.8912 29.608C68.0885 30.0933 67.1458 30.336 66.0632 30.336ZM76.5743 30L81.6143 23.056L76.5743 16.112H80.4103L83.9383 21.04L87.4383 16.112H91.3023L86.2343 23.056L91.3023 30H87.4383L83.9383 25.072L80.4103 30H76.5743ZM99.7736 30C98.3176 30 97.151 29.6453 96.2736 28.936C95.3963 28.2267 94.9576 26.9667 94.9576 25.156V19.108H92.5776V16.112H94.9576L95.3776 12.388H98.5416V16.112H102.294V19.108H98.5416V25.184C98.5416 25.856 98.6816 26.3227 98.9616 26.584C99.2603 26.8267 99.7643 26.948 100.474 26.948H102.21V30H99.7736ZM104.195 33.108L111.195 8.244H114.695L107.667 33.108H104.195Z" fill="white"/>
<path d="M117.156 30V9.84H120.74V18.24C121.207 17.4747 121.832 16.8773 122.616 16.448C123.419 16 124.333 15.776 125.36 15.776C127.077 15.776 128.403 16.3173 129.336 17.4C130.288 18.4827 130.764 20.0693 130.764 22.16V30H127.208V22.496C127.208 21.3013 126.965 20.3867 126.48 19.752C126.013 19.1173 125.267 18.8 124.24 18.8C123.232 18.8 122.392 19.1547 121.72 19.864C121.067 20.5733 120.74 21.5627 120.74 22.832V30H117.156ZM140.379 30C138.923 30 137.756 29.6453 136.879 28.936C136.002 28.2267 135.563 26.9667 135.563 25.156V19.108H133.183V16.112H135.563L135.983 12.388H139.147V16.112H142.899V19.108H139.147V25.184C139.147 25.856 139.287 26.3227 139.567 26.584C139.866 26.8267 140.37 26.948 141.079 26.948H142.815V30H140.379ZM152.164 30C150.708 30 149.542 29.6453 148.664 28.936C147.787 28.2267 147.348 26.9667 147.348 25.156V19.108H144.968V16.112H147.348L147.768 12.388H150.932V16.112H154.684V19.108H150.932V25.184C150.932 25.856 151.072 26.3227 151.352 26.584C151.651 26.8267 152.155 26.948 152.864 26.948H154.6V30H152.164ZM157.761 36.16V16.112H160.953L161.345 18.1C161.793 17.484 162.381 16.9427 163.109 16.476C163.856 16.0093 164.817 15.776 165.993 15.776C167.3 15.776 168.467 16.0933 169.493 16.728C170.52 17.3627 171.332 18.2307 171.929 19.332C172.527 20.4333 172.825 21.684 172.825 23.084C172.825 24.484 172.527 25.7347 171.929 26.836C171.332 27.9187 170.52 28.7773 169.493 29.412C168.467 30.028 167.3 30.336 165.993 30.336C164.948 30.336 164.033 30.14 163.249 29.748C162.465 29.356 161.831 28.8053 161.345 28.096V36.16H157.761ZM165.237 27.2C166.376 27.2 167.319 26.8173 168.065 26.052C168.812 25.2867 169.185 24.2973 169.185 23.084C169.185 21.8707 168.812 20.872 168.065 20.088C167.319 19.304 166.376 18.912 165.237 18.912C164.08 18.912 163.128 19.304 162.381 20.088C161.653 20.8533 161.289 21.8427 161.289 23.056C161.289 24.2693 161.653 25.268 162.381 26.052C163.128 26.8173 164.08 27.2 165.237 27.2Z" fill="#00DC82"/>
<mask id="mask0" mask-type="alpha" maskUnits="userSpaceOnUse" x="1" y="5" width="30" height="30">
<path d="M27.2008 33.2309C19.8319 34.9446 12.1681 34.9446 4.7992 33.2309C3.7909 32.9964 3.0036 32.2091 2.76911 31.2008C1.05541 23.8319 1.05541 16.1681 2.76911 8.7992C3.0036 7.7909 3.7909 7.0036 4.7992 6.76911C12.1681 5.05541 19.8319 5.05541 27.2008 6.76911C28.2091 7.0036 28.9964 7.7909 29.2309 8.7992C30.9446 16.1681 30.9446 23.8319 29.2309 31.2008C28.9964 32.2091 28.2091 32.9964 27.2008 33.2309Z" fill="#00DC82" stroke="black" stroke-width="0.32"/>
</mask>
<g mask="url(#mask0)">
<path fill-rule="evenodd" clip-rule="evenodd" d="M20.9369 4.60376H0.52832V32.9828L3.45343 36H15.4372L25.4888 30.1967C26.0893 29.85 26.295 29.0822 25.9483 28.4817L20.3068 18.7104C19.9601 18.1099 20.1659 17.3421 20.7663 16.9954L24.2791 14.9673C24.8795 14.6206 25.6474 14.8264 25.9941 15.4268L32 25.8295V5.8387C31.9349 5.86292 31.871 5.89289 31.8088 5.92878L15.0798 15.5873C14.4793 15.934 14.2736 16.7018 14.6203 17.3023L20.2618 27.0736C20.6085 27.6741 20.4027 28.4419 19.8022 28.7886L16.2649 30.8309C15.6644 31.1776 14.8966 30.9718 14.5499 30.3714L5.61669 14.8986C5.27001 14.2981 5.47574 13.5303 6.07622 13.1836L20.9369 4.60376ZM28.6041 36L32 34.0394V36H28.6041Z" fill="#00DC82"/>
</g>
</svg>
