<svg width="245" height="40" viewBox="0 0 245 40" fill="none" xmlns="http://www.w3.org/2000/svg">
<path d="M50.82 30V16.112H53.984L54.264 18.464C54.6933 17.6427 55.3093 16.9893 56.112 16.504C56.9333 16.0187 57.8947 15.776 58.996 15.776C60.7133 15.776 62.048 16.3173 63 17.4C63.952 18.4827 64.428 20.0693 64.428 22.16V30H60.844V22.496C60.844 21.3013 60.6013 20.3867 60.116 19.752C59.6307 19.1173 58.8747 18.8 57.848 18.8C56.84 18.8 56.0093 19.1547 55.356 19.864C54.7213 20.5733 54.404 21.5627 54.404 22.832V30H50.82ZM73.0632 30.336C71.3272 30.336 69.9832 29.7947 69.0312 28.712C68.0978 27.6293 67.6312 26.0427 67.6312 23.952V16.112H71.1872V23.616C71.1872 24.8107 71.4298 25.7253 71.9152 26.36C72.4005 26.9947 73.1658 27.312 74.2112 27.312C75.2005 27.312 76.0125 26.9573 76.6472 26.248C77.3005 25.5387 77.6272 24.5493 77.6272 23.28V16.112H81.2112V30H78.0472L77.7672 27.648C77.3378 28.4693 76.7125 29.1227 75.8912 29.608C75.0885 30.0933 74.1458 30.336 73.0632 30.336ZM83.5743 30L88.6143 23.056L83.5743 16.112H87.4103L90.9383 21.04L94.4383 16.112H98.3023L93.2343 23.056L98.3023 30H94.4383L90.9383 25.072L87.4103 30H83.5743ZM106.774 30C105.318 30 104.151 29.6453 103.274 28.936C102.396 28.2267 101.958 26.9667 101.958 25.156V19.108H99.5776V16.112H101.958L102.378 12.388H105.542V16.112H109.294V19.108H105.542V25.184C105.542 25.856 105.682 26.3227 105.962 26.584C106.26 26.8267 106.764 26.948 107.474 26.948H109.21V30H106.774ZM111.195 33.108L118.195 8.244H121.695L114.667 33.108H111.195Z" fill="#003C3C"/>
<path d="M124.156 30V9.84H127.74V18.24C128.207 17.4747 128.832 16.8773 129.616 16.448C130.419 16 131.333 15.776 132.36 15.776C134.077 15.776 135.403 16.3173 136.336 17.4C137.288 18.4827 137.764 20.0693 137.764 22.16V30H134.208V22.496C134.208 21.3013 133.965 20.3867 133.48 19.752C133.013 19.1173 132.267 18.8 131.24 18.8C130.232 18.8 129.392 19.1547 128.72 19.864C128.067 20.5733 127.74 21.5627 127.74 22.832V30H124.156ZM147.379 30C145.923 30 144.756 29.6453 143.879 28.936C143.002 28.2267 142.563 26.9667 142.563 25.156V19.108H140.183V16.112H142.563L142.983 12.388H146.147V16.112H149.899V19.108H146.147V25.184C146.147 25.856 146.287 26.3227 146.567 26.584C146.866 26.8267 147.37 26.948 148.079 26.948H149.815V30H147.379ZM159.164 30C157.708 30 156.542 29.6453 155.664 28.936C154.787 28.2267 154.348 26.9667 154.348 25.156V19.108H151.968V16.112H154.348L154.768 12.388H157.932V16.112H161.684V19.108H157.932V25.184C157.932 25.856 158.072 26.3227 158.352 26.584C158.651 26.8267 159.155 26.948 159.864 26.948H161.6V30H159.164ZM164.761 36.16V16.112H167.953L168.345 18.1C168.793 17.484 169.381 16.9427 170.109 16.476C170.856 16.0093 171.817 15.776 172.993 15.776C174.3 15.776 175.467 16.0933 176.493 16.728C177.52 17.3627 178.332 18.2307 178.929 19.332C179.527 20.4333 179.825 21.684 179.825 23.084C179.825 24.484 179.527 25.7347 178.929 26.836C178.332 27.9187 177.52 28.7773 176.493 29.412C175.467 30.028 174.3 30.336 172.993 30.336C171.948 30.336 171.033 30.14 170.249 29.748C169.465 29.356 168.831 28.8053 168.345 28.096V36.16H164.761ZM172.237 27.2C173.376 27.2 174.319 26.8173 175.065 26.052C175.812 25.2867 176.185 24.2973 176.185 23.084C176.185 21.8707 175.812 20.872 175.065 20.088C174.319 19.304 173.376 18.912 172.237 18.912C171.08 18.912 170.128 19.304 169.381 20.088C168.653 20.8533 168.289 21.8427 168.289 23.056C168.289 24.2693 168.653 25.268 169.381 26.052C170.128 26.8173 171.08 27.2 172.237 27.2Z" fill="#41B38A"/>
<mask id="mask0" mask-type="alpha" maskUnits="userSpaceOnUse" x="8" y="5" width="30" height="30">
<path d="M9.76911 8.7992C10.0036 7.7909 10.7909 7.0036 11.7992 6.76911C19.1681 5.05541 26.8319 5.05541 34.2008 6.76911C35.2091 7.0036 35.9964 7.7909 36.2309 8.7992C37.9446 16.1681 37.9446 23.8319 36.2309 31.2008C35.9964 32.2091 35.2091 32.9964 34.2008 33.2309C26.8319 34.9446 19.1681 34.9446 11.7992 33.2309C10.7909 32.9964 10.0036 32.2091 9.76911 31.2008C8.05541 23.8319 8.05541 16.1681 9.76911 8.7992Z" fill="#00DC82" stroke="black" stroke-width="0.32"/>
</mask>
<g mask="url(#mask0)">
<path fill-rule="evenodd" clip-rule="evenodd" d="M27.9369 4.60376H7.52832V32.9829L10.4534 36H22.4373L32.4888 30.1968C33.0893 29.8501 33.295 29.0822 32.9483 28.4818L27.3068 18.7104C26.9601 18.1099 27.1659 17.3421 27.7663 16.9954L31.2791 14.9674C31.8795 14.6207 32.6474 14.8264 32.9941 15.4269L39 25.8295V5.83872C38.9349 5.86294 38.871 5.89291 38.8088 5.9288L22.0798 15.5873C21.4793 15.934 21.2736 16.7018 21.6203 17.3023L27.2618 27.0736C27.6085 27.6741 27.4027 28.4419 26.8022 28.7886L23.2649 30.8309C22.6644 31.1776 21.8966 30.9719 21.5499 30.3714L12.6167 14.8986C12.27 14.2981 12.4757 13.5303 13.0762 13.1836L27.9369 4.60376ZM35.6042 36L39 34.0394V36H35.6042Z" fill="#00DC82"/>
</g>
</svg>
